<?xml version="1.0" standalone="no"?>
<!DOCTYPE svg PUBLIC "-//W3C//DTD SVG 20010904//EN"
 "http://www.w3.org/TR/2001/REC-SVG-20010904/DTD/svg10.dtd">
<svg version="1.0" xmlns="http://www.w3.org/2000/svg"
 width="500.000000pt" height="500.000000pt" viewBox="0 0 500.000000 500.000000"
 preserveAspectRatio="xMidYMid meet">

<g transform="translate(0.000000,500.000000) scale(0.100000,-0.100000)"
fill="#000000" stroke="none">
<path d="M1752 3622 c19 -45 113 -204 122 -207 6 -3 220 -6 476 -7 l465 -3 62
-29 c76 -35 153 -113 191 -193 24 -52 27 -69 27 -173 0 -108 -2 -119 -32 -182
-40 -84 -100 -150 -169 -184 -66 -32 -250 -52 -293 -31 -19 9 -78 103 -211
334 -102 178 -193 330 -202 339 -22 22 -38 10 -76 -60 -26 -47 -149 -260 -385
-668 -53 -92 -97 -170 -97 -173 0 -3 184 -5 408 -5 l409 0 20 -22 c11 -13 62
-98 114 -190 l94 -167 129 -1 c109 0 127 2 122 15 -3 8 -48 89 -101 179 -52
91 -95 169 -95 175 0 6 15 11 33 11 19 0 69 9 112 20 212 54 374 219 432 440
22 87 22 253 -1 340 -44 166 -153 305 -296 380 -132 68 -148 70 -738 70 -288
0 -522 -3 -520 -8z m496 -879 c40 -69 71 -128 69 -130 -2 -2 -70 -2 -150 -1
l-146 3 72 127 c39 70 74 127 77 128 3 0 38 -57 78 -127z"/>
<path d="M1940 1779 c-40 -17 -69 -50 -81 -92 -31 -116 58 -216 167 -185 25 7
39 6 50 -3 20 -16 50 7 33 27 -9 11 -7 22 5 48 30 62 15 137 -37 185 -29 27
-98 37 -137 20z m109 -65 c15 -19 21 -41 21 -74 0 -55 -5 -63 -31 -47 -15 9
-22 8 -36 -5 -15 -16 -15 -18 0 -24 25 -9 21 -24 -7 -24 -38 0 -56 10 -71 41
-19 36 -19 82 0 119 17 32 27 38 72 39 23 1 37 -6 52 -25z"/>
<path d="M3481 1772 c-51 -27 -73 -74 -68 -145 3 -48 8 -63 34 -88 57 -58 145
-55 200 5 29 32 33 42 33 93 0 71 -26 118 -75 139 -46 19 -83 18 -124 -4z
m109 -42 c10 -5 24 -26 30 -46 34 -101 -53 -184 -126 -120 -24 20 -28 31 -28
74 0 40 5 57 24 77 25 26 67 33 100 15z"/>
<path d="M1362 1647 c-29 -73 -52 -136 -52 -140 0 -4 11 -7 24 -7 19 0 27 8
36 35 11 34 13 35 65 35 52 0 54 -1 66 -35 11 -29 18 -35 41 -35 15 0 28 1 28
3 0 1 -24 63 -53 137 -48 119 -57 135 -79 138 -23 3 -28 -5 -76 -131z m87 31
c25 -68 25 -68 -14 -68 -31 0 -36 3 -30 18 4 9 12 29 17 45 12 33 16 34 27 5z"/>
<path d="M1610 1640 l0 -140 24 0 c23 0 25 4 28 53 3 47 5 52 28 55 21 2 30
-6 55 -53 25 -47 34 -55 58 -55 l28 0 -33 58 -32 59 22 28 c22 28 27 59 16 90
-11 28 -60 45 -129 45 l-65 0 0 -140z m121 90 c11 -6 19 -21 19 -35 0 -27 -25
-45 -64 -45 -23 0 -26 4 -26 38 0 21 3 42 7 45 10 10 42 8 64 -3z"/>
<path d="M2172 1669 c3 -111 3 -111 36 -140 26 -24 41 -29 82 -29 41 0 56 5
82 29 l33 29 3 111 4 111 -31 0 -31 0 0 -103 c0 -114 -10 -137 -62 -137 -47 0
-58 26 -58 138 l0 102 -31 0 -31 0 4 -111z"/>
<path d="M2480 1640 l0 -140 25 0 25 0 0 140 0 140 -25 0 -25 0 0 -140z"/>
<path d="M2570 1760 c0 -17 7 -20 40 -20 l40 0 0 -120 0 -120 30 0 30 0 0 120
0 120 45 0 c38 0 45 3 45 20 0 19 -7 20 -115 20 -108 0 -115 -1 -115 -20z"/>
<path d="M2840 1684 c0 -146 26 -184 126 -184 37 0 51 6 75 29 29 29 29 31 29
140 l0 111 -25 0 c-25 0 -25 0 -25 -98 0 -112 -13 -142 -60 -142 -51 0 -60 20
-60 136 l0 104 -30 0 -30 0 0 -96z"/>
<path d="M3140 1640 l0 -140 65 0 c111 0 157 32 171 116 8 55 -10 107 -47 139
-27 22 -40 25 -110 25 l-79 0 0 -140z m155 75 c20 -19 25 -34 25 -72 0 -71
-19 -93 -81 -93 l-49 0 0 88 c0 49 3 92 7 95 16 17 75 6 98 -18z"/>
</g>
</svg>
